<?xml version="1.0" encoding="utf-8"?>
<!-- Generator: Adobe Illustrator 19.0.0, SVG Export Plug-In . SVG Version: 6.00 Build 0)  -->
<svg version="1.1" id="Layer_1" xmlns="http://www.w3.org/2000/svg" xmlns:xlink="http://www.w3.org/1999/xlink" x="0px" y="0px"
	 viewBox="-241 333 128 128" style="enable-background:new -241 333 128 128;" xml:space="preserve">
<style type="text/css">
	.st0{fill:#01E5DB;}
</style>
<g>
	<g>
		<path class="st0" d="M-155.7,379.5l-30.8,30.8l-11.7-11.7c-0.8-0.8-2-0.8-2.8,0c-0.8,0.8-0.8,2,0,2.8l14.5,14.5l33.6-33.6
			c0.8-0.8,0.8-2,0-2.8C-153.7,378.7-155,378.7-155.7,379.5z M-177,346.9c-27.6,0-50.1,22.5-50.1,50.1c0,27.6,22.5,50.1,50.1,50.1h0
			c27.6,0,50.1-22.5,50.1-50.1C-126.8,369.4-149.3,346.9-177,346.9z M-177,443.1L-177,443.1c-25.4,0-46.1-20.7-46.1-46.1
			c0-25.4,20.7-46.1,46.1-46.1s46.1,20.7,46.1,46.1C-130.8,422.4-151.5,443.1-177,443.1z"/>
	</g>
</g>
</svg>
