<?xml version="1.0" encoding="UTF-8"?>
<svg width="158px" height="167px" viewBox="0 0 158 167" version="1.1" xmlns="http://www.w3.org/2000/svg" xmlns:xlink="http://www.w3.org/1999/xlink">
    <!-- Generator: sketchtool 47.1 (45422) - http://www.bohemiancoding.com/sketch -->
    <title>AFEDD5BC-5D8E-465C-86EC-D660E040B44A</title>
    <desc>Created with sketchtool.</desc>
    <defs>
        <rect id="path-1" x="23.3829329" y="23.3829329" width="111.634647" height="111.634647" rx="18"></rect>
        <filter x="-3.1%" y="-26.9%" width="106.1%" height="153.8%" filterUnits="objectBoundingBox" id="filter-3">
            <feGaussianBlur stdDeviation="0.717075893" in="SourceGraphic"></feGaussianBlur>
        </filter>
    </defs>
    <g id="Symbols" stroke="none" stroke-width="1" fill="none" fill-rule="evenodd">
        <g id="-g-elementos/iconos/iconosAccion/Icono-jugar">
            <g id="Group">
                <g id="Icono-Jugar">
                    <mask id="mask-2" fill="white">
                        <use xlink:href="#path-1"></use>
                    </mask>
                    <rect stroke="#00BCB4" stroke-width="5" x="25.8829329" y="25.8829329" width="106.634647" height="106.634647" rx="18"></rect>
                    <g id="color/affirmative-blanco" mask="url(#mask-2)" fill="#FFFFFF">
                        <g transform="translate(-2.000000, -1.000000)" id="Rectangle-Copy-5">
                            <rect x="0" y="0" width="165.0375" height="170.1"></rect>
                        </g>
                    </g>
                    <ellipse id="Oval" fill="#D9FDFC" mask="url(#mask-2)" cx="67.7714408" cy="99" rx="121.771441" ry="52"></ellipse>
                    <ellipse id="Oval" fill="#F2FFFE" mask="url(#mask-2)" cx="86.4598664" cy="66.7153802" rx="34.4598664" ry="14.7153802"></ellipse>
                    <ellipse id="Oval-2" fill-opacity="0.173913043" fill="#8AACAA" filter="url(#filter-3)" mask="url(#mask-2)" cx="80" cy="163" rx="35" ry="4"></ellipse>
                    <ellipse id="Oval-Copy" fill="#BCFCF9" mask="url(#mask-2)" cx="92.6087922" cy="60.8261868" rx="6.60879216" ry="2.82618675"></ellipse>
                    <ellipse id="Oval-Copy" fill="#46A19D" mask="url(#mask-2)" cx="91.8187944" cy="60.8261868" rx="5.81879435" ry="2.82618675"></ellipse>
                    <path d="M91,14.0288334 L93.0408533,14 L93.0408533,63.6501244 C92.9311343,63.6501244 92.5910744,63.6501244 92.0206736,63.6501244 C91.4502728,63.6501244 91.1100483,63.6405133 91,63.621291 L91,14.0288334 Z" id="Path" fill="#9B9B9B" mask="url(#mask-2)"></path>
                    <path d="M-73.8702356,14.9415237 L-68.0347508,16.2057219 L86.0385844,64.5628147 C86.0385844,64.5628147 85.7663815,64.6367411 85.1975687,65.0433658 C84.6287559,65.4499904 84.4645499,66.0062974 84.4567564,66.0057524 C84.4515608,66.0053891 31.6758968,48.9839795 -73.8702356,14.9415237 Z" id="Path" fill="#CFDCDB" style="mix-blend-mode: multiply;" mask="url(#mask-2)" transform="translate(6.084174, 40.473638) rotate(-4.000000) translate(-6.084174, -40.473638) "></path>
                    <rect id="Rectangle-2" stroke="#50E3C2" stroke-width="8" mask="url(#mask-2)" transform="translate(79.200256, 79.200256) rotate(46.000000) translate(-79.200256, -79.200256) " x="27.3829329" y="27.3829329" width="103.634647" height="103.634647" rx="18"></rect>
                    <rect id="Rectangle-2" stroke="#00BCB4" stroke-width="5" mask="url(#mask-2)" transform="translate(79.200256, 79.200256) rotate(46.000000) translate(-79.200256, -79.200256) " x="25.8829329" y="25.8829329" width="106.634647" height="106.634647" rx="18"></rect>
                    <g id="Page-1" mask="url(#mask-2)" stroke="#00BCB4" stroke-width="2" fill="#00BCB4">
                        <g transform="translate(67.046178, 67.318716) rotate(-10.000000) translate(-67.046178, -67.318716) translate(26.546178, 20.318716)">
                            <path d="M58.8054258,73.5731437 C61.4382188,73.7396931 64.1244394,73.79826 66.7971381,73.74738 C68.0599422,72.2326953 68.749224,70.2853481 68.749224,68.2011009 C68.749224,63.6852319 65.439022,60.0112612 61.37028,60.0112612 C57.3018678,60.0112612 53.9916657,63.6852319 53.9916657,68.2011009 C53.9916657,70.0693829 54.5609005,71.861528 55.6053769,73.310325 C56.6811843,73.4183076 57.755013,73.50689 58.8054258,73.5731437 Z M58.6552198,76.9007075 C57.3742768,76.8198345 56.060024,76.7074906 54.7487394,76.5669692 L54.1874199,76.5065889 L53.8035328,76.0476987 C52.0229428,73.9179214 51.0421178,71.1459175 51.0421178,68.2421747 C51.0421178,61.9117593 55.6837223,56.7611381 61.3889316,56.7611381 C67.0941409,56.7611381 71.7360752,61.9117593 71.7360752,68.2421747 C71.7360752,71.4039059 70.54121,74.4580505 68.4581935,76.6222263 L68.0442946,77.0522071 L67.4773684,77.0664788 C66.635719,77.0873374 65.7924205,77.0979497 64.949122,77.0979497 C62.8397216,77.0979497 60.7316403,77.0320803 58.6552198,76.9007075 Z" id="Fill-1"></path>
                            <path d="M31.5219612,93.1523898 C25.3135191,93.1523898 20.2627516,88.8320375 20.2627516,83.5217206 C20.2627516,78.9934025 23.9350083,75.1851919 28.866099,74.1614952 L0.932738681,2.35547468 C0.603884992,1.51011822 1.13848656,0.596710868 2.12676219,0.315414254 C3.11400908,0.0341176402 4.18286929,0.491407964 4.51172298,1.33676442 L32.9563668,74.4568713 C33.2378985,74.7387545 33.4079834,75.1045281 33.4079834,75.5040338 C33.4079834,76.3951487 32.5633884,77.1173095 31.5219612,77.1173095 C27.3936301,77.1173095 24.034796,79.9904068 24.034796,83.5217206 C24.034796,87.0530344 27.3936301,89.9258384 31.5219612,89.9258384 L69.2849263,89.9258384 C73.4132575,89.9258384 76.7717486,87.0530344 76.7717486,83.5217206 C76.7717486,79.9904068 73.4132575,77.1173095 69.2849263,77.1173095 L43.7984909,77.1173095 C42.7567209,77.1173095 41.9124687,76.3951487 41.9124687,75.5040338 C41.9124687,74.6132123 42.7567209,73.8907582 43.7984909,73.8907582 L69.2849263,73.8907582 C75.4930256,73.8907582 80.543793,78.2111104 80.543793,83.5217206 C80.543793,88.8320375 75.4930256,93.1523898 69.2849263,93.1523898 L31.5219612,93.1523898 Z" id="Fill-3"></path>
                        </g>
                    </g>
                </g>
                <ellipse id="Oval-2" fill-opacity="0.160000011" fill="#8EAFAE" cx="79.3117551" cy="162.683599" rx="24.3117551" ry="3.68359926"></ellipse>
                <path d="M87.5190835,58.9085993 L87.5190835,62.7311303 C86.6050217,62.249159 86.0981316,61.6619296 85.9984134,60.9694421 C85.9153149,60.2326354 86.422205,59.5456878 87.5190835,58.9085993 Z" id="Path-3" fill="#46A19D" style="mix-blend-mode: multiply;"></path>
            </g>
        </g>
    </g>
</svg>